<svg width="48" height="48" viewBox="0 0 48 48" fill="none" xmlns="http://www.w3.org/2000/svg">
<mask id="path-1-inside-1_50_74" fill="white">
<path fill-rule="evenodd" clip-rule="evenodd" d="M23.9998 0C22.2132 0 20.4737 0.200899 18.7988 0.571583V24.0176C18.7988 26.8916 21.1405 29.2337 24.0135 29.2337C26.8861 29.2337 29.2287 26.8911 29.2287 24.0176C29.2287 21.2627 27.0723 18.9946 24.3608 18.8143V14.6384C29.3701 14.8219 33.4001 18.9644 33.4001 24.0181C33.4001 29.1884 29.1829 33.406 24.0135 33.406C18.8413 33.406 14.626 29.1884 14.626 24.0181V1.90101C14.0325 2.15271 13.4545 2.43233 12.8866 2.72979V24.0181C12.887 30.1472 17.8862 35.145 24.013 35.145C30.1421 35.145 35.1395 30.1472 35.1395 24.0185C35.1395 18.0084 30.3293 13.0847 24.3604 12.8994V8.72527C32.6267 8.91198 39.31 15.7092 39.31 24.0185C39.31 32.4454 32.4386 39.3173 24.013 39.3173C15.5861 39.3173 8.71383 32.445 8.71383 24.0185V5.49802C3.39199 9.90047 0 16.5549 0 24.0007C0 37.2565 10.7448 48.0023 23.9993 48.0023C37.257 48.0023 48 37.2565 48 24.0007C48.0009 10.7453 37.2575 0 23.9998 0Z"/>
</mask>
<path d="M18.7988 0.571583L18.3666 -1.38117L16.7988 -1.03419V0.571583H18.7988ZM24.3608 18.8143H22.3608V20.6857L24.2281 20.8099L24.3608 18.8143ZM24.3608 14.6384L24.4341 12.6397L22.3608 12.5638V14.6384H24.3608ZM14.626 1.90101H16.626V-1.11949L13.8452 0.0597262L14.626 1.90101ZM12.8866 2.72979L11.9586 0.958102L10.8866 1.51961V2.72979H12.8866ZM12.8866 24.0181H10.8866V24.0182L12.8866 24.0181ZM24.3604 12.8994H22.3604V14.8382L24.2983 14.8984L24.3604 12.8994ZM24.3604 8.72527L24.4056 6.72578L22.3604 6.67958V8.72527H24.3604ZM8.71383 5.49802H10.7138V1.2479L7.43901 3.95697L8.71383 5.49802ZM48 24.0007L46 24.0005V24.0007H48ZM23.9998 -2C22.0627 -2 20.1783 -1.78212 18.3666 -1.38117L19.2309 2.52433C20.7691 2.18392 22.3637 2 23.9998 2V-2ZM16.7988 0.571583V24.0176H20.7988V0.571583H16.7988ZM16.7988 24.0176C16.7988 27.9957 20.0354 31.2337 24.0135 31.2337V27.2337C22.2455 27.2337 20.7988 25.7875 20.7988 24.0176H16.7988ZM24.0135 31.2337C27.9909 31.2337 31.2287 27.9955 31.2287 24.0176H27.2287C27.2287 25.7868 25.7813 27.2337 24.0135 27.2337V31.2337ZM31.2287 24.0176C31.2287 20.201 28.2471 17.0683 24.4935 16.8187L24.2281 20.8099C25.8975 20.9209 27.2287 22.3243 27.2287 24.0176H31.2287ZM26.3608 18.8143V14.6384H22.3608V18.8143H26.3608ZM24.2876 16.637C28.2263 16.7813 31.4001 20.0452 31.4001 24.0181H35.4001C35.4001 17.8836 30.514 12.8625 24.4341 12.6397L24.2876 16.637ZM31.4001 24.0181C31.4001 28.0841 28.0781 31.406 24.0135 31.406V35.406C30.2878 35.406 35.4001 30.2927 35.4001 24.0181H31.4001ZM24.0135 31.406C19.9463 31.406 16.626 28.0842 16.626 24.0181H12.626C12.626 30.2926 17.7364 35.406 24.0135 35.406V31.406ZM16.626 24.0181V1.90101H12.626V24.0181H16.626ZM13.8452 0.0597262C13.1916 0.336904 12.5638 0.641121 11.9586 0.958102L13.8145 4.50148C14.3452 4.22354 14.8734 3.96852 15.4068 3.7423L13.8452 0.0597262ZM10.8866 2.72979V24.0181H14.8866V2.72979H10.8866ZM10.8866 24.0182C10.8871 31.2518 16.7817 37.145 24.013 37.145V33.145C18.9908 33.145 14.8869 29.0425 14.8866 24.0179L10.8866 24.0182ZM24.013 37.145C31.2468 37.145 37.1395 31.2517 37.1395 24.0185H33.1395C33.1395 29.0427 29.0375 33.145 24.013 33.145V37.145ZM37.1395 24.0185C37.1395 16.9236 31.4669 11.1191 24.4225 10.9003L24.2983 14.8984C29.1918 15.0503 33.1395 19.0932 33.1395 24.0185H37.1395ZM26.3604 12.8994V8.72527H22.3604V12.8994H26.3604ZM24.3152 10.7248C31.4979 10.887 37.31 16.7993 37.31 24.0185H41.31C41.31 14.6192 33.7554 6.93697 24.4056 6.72578L24.3152 10.7248ZM37.31 24.0185C37.31 31.341 31.3338 37.3173 24.013 37.3173V41.3173C33.5433 41.3173 41.31 33.5498 41.31 24.0185H37.31ZM24.013 37.3173C16.6907 37.3173 10.7138 31.3404 10.7138 24.0185H6.71383C6.71383 33.5496 14.4816 41.3173 24.013 41.3173V37.3173ZM10.7138 24.0185V5.49802H6.71383V24.0185H10.7138ZM7.43901 3.95697C1.67775 8.72294 -2 15.9335 -2 24.0007H2C2 17.1763 5.10624 11.078 9.98866 7.03907L7.43901 3.95697ZM-2 24.0007C-2 38.3609 9.64008 50.0023 23.9993 50.0023V46.0023C11.8496 46.0023 2 36.1521 2 24.0007H-2ZM23.9993 50.0023C38.3618 50.0023 50 38.3609 50 24.0007H46C46 36.1522 36.1522 46.0023 23.9993 46.0023V50.0023ZM50 24.0008C50.001 9.64077 38.3621 -2 23.9998 -2V2C36.1529 2 46.0008 11.8498 46 24.0005L50 24.0008Z" fill="#9DE311" mask="url(#path-1-inside-1_50_74)"/>
</svg>
