<svg width="69" height="42" viewBox="0 0 69 42" fill="none" xmlns="http://www.w3.org/2000/svg">
<mask id="path-1-inside-1_50_135" fill="white">
<path fill-rule="evenodd" clip-rule="evenodd" d="M18.9347 0H5.59656V5.58431H13.3848L13.4373 42H18.9347L18.9347 0ZM69 32.5781H41.9917L41.3816 32.5591L40.7841 32.5123L40.1927 32.4399L39.6121 32.3364L39.0441 32.2047L38.4868 32.0446L37.9363 31.8563L37.4026 31.6522L36.881 31.4105L36.3716 31.1499L35.8795 30.8675L35.4041 30.5599L34.9416 30.2305L34.5023 29.8821L34.0739 29.5116L33.6638 29.1163L33.2772 28.7085L32.9082 28.2784L32.5616 27.8296L32.2343 27.3713L31.9292 26.8879L31.642 26.392L31.3844 25.8835L31.1495 25.3594L30.9389 24.8165L30.7573 24.2705L30.5985 23.7085L30.4701 23.1372L30.3646 22.5536L30.2881 21.9573L30.2477 21.3561L30.2295 20.7435L30.2416 20.1362L30.2828 19.5343L30.3468 18.945L30.4464 18.3613L30.5698 17.7893L30.7219 17.2235L30.904 16.6689L31.1088 16.1266L31.3377 15.5955L31.5895 15.0831L31.8652 14.5816L32.1692 14.0919L32.4918 13.6204L32.8317 13.1661L33.2007 12.7301L33.5822 12.3117L33.9866 11.9107L34.4142 11.5334L34.8534 11.1739L35.3105 10.8375L35.7855 10.5189L36.2772 10.2301L36.7874 9.95939L37.3085 9.71698L37.8483 9.4987L38.3931 9.30422L38.9557 9.14479L39.5301 9.01002L40.1159 8.89781L40.7137 8.82094L41.3237 8.77376L41.9387 8.75573L42.5363 8.77376L43.1284 8.82094L43.7144 8.90321L44.2887 9.01002L44.8573 9.1511L45.4199 9.32216L45.9647 9.51665L46.5044 9.74032L47.0318 9.99399L47.5405 10.2717L48.04 10.5722L48.5253 10.9025L48.995 11.25L49.4458 11.6276L49.8797 12.0229L50.3012 12.4412L50.7004 12.8773L51.0748 13.3372L51.4321 13.8151L51.7726 14.3101L52.0892 14.8287L52.3764 15.3599L52.6448 15.9085L52.8911 16.4741L53.1079 17.0524L53.3016 17.6472L53.4656 18.2489L53.6013 18.868L53.7061 19.5053L53.7882 20.147L53.8353 20.7962L53.846 21.4616H53.7883H53.6121H53.342H52.9913H52.5747H52.1129H51.6132H51.0983H50.5881H50.0903H49.6269H49.2117H48.8589H48.5905H48.4143H48.3502L48.3441 21.0909L48.3268 20.7309L48.2907 20.3715L48.2381 20.0239L48.1804 19.6763L48.104 19.3397L48.0149 19.0095L47.9165 18.6853L47.8043 18.3669L47.6763 18.06L47.5404 17.7656L47.389 17.4763L47.2254 17.1938L47.0487 16.9286L46.8617 16.6689L46.6681 16.4216L46.4575 16.1855L46.2342 15.9611L46.0003 15.7547L45.7602 15.5548L45.507 15.3718L45.2374 15.2008L44.9627 15.0416L44.6809 14.8995L44.3822 14.7699L44.0779 14.658L43.7608 14.5637L43.4387 14.4867L43.0985 14.4224L42.7594 14.3755L42.402 14.3518L42.0383 14.3401L41.6748 14.3518L41.3237 14.3755L40.9775 14.4224L40.6434 14.4867L40.3154 14.5637L39.9987 14.658L39.6946 14.7699L39.4013 14.8995L39.114 15.0416L38.8385 15.2008L38.5746 15.3718L38.3165 15.5548L38.0764 15.7547L37.8424 15.9611L37.6254 16.1855L37.4148 16.4216L37.2148 16.6689L37.0274 16.9286L36.8513 17.1938L36.6938 17.4763L36.5409 17.7656L36.4005 18.06L36.2771 18.3669L36.1602 18.6853L36.0601 19.0095L35.9729 19.3397L35.8964 19.6763L35.8378 20.0239L35.7913 20.3715L35.7559 20.7309L35.7326 21.0909L35.7265 21.4616L35.7389 21.7564L35.7622 22.0453L35.8091 22.3337L35.8677 22.6132L35.9495 22.8895L36.0369 23.1531L36.1482 23.4197L36.2716 23.6741L36.4067 23.9219L36.5534 24.1637L36.7171 24.3989L36.8929 24.6217L37.0806 24.8414L37.2736 25.0488L37.4851 25.2528L37.702 25.4408L37.9244 25.6264L38.1591 25.7958L38.4047 25.9621L38.657 26.1158L38.9142 26.2569L39.1782 26.3856L39.4483 26.5081L39.7235 26.6149L39.9988 26.7153L40.2861 26.7968L40.5731 26.8755L40.8603 26.9349L41.1537 26.9821L41.4463 27.0168L41.7451 27.0355L42.0385 27.0449H68.9998L69 32.5781ZM69 41.3314H42.0386L41.0009 41.3096L39.9757 41.2311L38.9559 41.115L37.9595 40.9424L36.975 40.732L36.0139 40.4719L35.065 40.1644L34.1388 39.8185L33.2362 39.4328L32.3515 39.0027L31.4963 38.5382L30.6634 38.0299L29.8607 37.4866L29.0868 36.9062L28.3426 36.2908L27.6277 35.6413L26.9483 34.9603L26.2975 34.2449L25.6879 33.4977L25.114 32.7255L24.5746 31.916L24.0759 31.0843L23.6197 30.224L23.2033 29.3392L22.8338 28.4322L22.5118 27.4998L22.23 26.5394L21.9961 25.5666L21.8145 24.5624L21.6856 23.5487L21.6033 22.5129L21.5739 21.4617L21.6033 20.4013L21.674 19.3578L21.8024 18.3196L21.9728 17.2942L22.1893 16.2796L22.4532 15.2831L22.7636 14.3048L23.1156 13.3373L23.5083 12.3997L23.9422 11.4803L24.4225 10.584L24.9374 9.7115L25.4947 8.86803L26.0868 8.05425L26.713 7.26419L27.3822 6.50939L28.0786 5.78984L28.8121 5.1002L29.5793 4.45216L30.3767 3.83848L31.2029 3.26657L32.058 2.73611L32.949 2.24647L33.857 1.80464L34.8012 1.4094L35.7678 1.05536L36.7581 0.75497L37.772 0.507702L38.8038 0.313093L39.8639 0.165621L40.9423 0.0824367L42.0386 0.0534902L43.1403 0.0767886L44.2187 0.159391L45.2733 0.294903L46.311 0.484113L47.3236 0.719587L48.321 1.00814L49.2884 1.34415L50.2249 1.72777L51.1452 2.15237L52.0302 2.62377L52.8914 3.13696L53.7188 3.69096L54.521 4.28654L55.2884 4.92357L56.0219 5.58971L56.7242 6.29767L57.392 7.04068L58.0257 7.81891L58.6171 8.6262L59.1802 9.46361L59.695 10.3305L60.1759 11.2321L60.616 12.1525L61.0074 13.1018L61.3666 14.074L61.6708 15.0706L61.9409 16.0904L62.1577 17.1286L62.3278 18.184L62.4557 19.2637L62.526 20.3543L62.5555 21.4617H57.058L57.0284 20.6964L56.977 19.9415L56.8879 19.1868L56.7664 18.4384L56.6197 17.7008L56.4372 16.9694L56.2325 16.2506L55.9925 15.5428L55.7223 14.8525L55.4245 14.1689L55.1011 13.5083L54.7442 12.8595L54.3568 12.2349L53.9466 11.6277L53.5082 11.0376L53.0445 10.4718L52.5471 9.93514L52.0243 9.42287L51.4795 8.93323L50.9052 8.47329L50.3016 8.04267L49.6738 7.64161L49.023 7.27599L48.3446 6.94022L47.6409 6.6395L46.9136 6.38006L46.1644 6.15024L45.3844 5.96709L44.5823 5.81958L43.7611 5.7138L42.9118 5.65483L42.0386 5.63693L41.1655 5.65483L40.3095 5.72547L39.4833 5.83777L38.6805 5.99072L37.9009 6.18529L37.1449 6.42076L36.4124 6.69216L35.7092 6.9989L35.0297 7.34123L34.3735 7.71853L33.746 8.12502L33.1423 8.56133L32.5679 9.02726L32.0236 9.52258L31.5017 10.0474L31.003 10.5903L30.5405 11.1561L30.1012 11.7455L29.6906 12.3589L29.3154 12.9897L28.958 13.6324L28.6359 14.2923L28.3426 14.9711L28.0786 15.6605L27.8447 16.3622L27.6457 17.0698L27.4702 17.7895L27.3289 18.5145L27.2173 19.2459L27.1353 19.9827L27.0889 20.72L27.0713 21.4617L27.0951 22.1299L27.147 22.7953L27.2408 23.4607L27.3639 24.1168L27.5227 24.7757L27.7158 25.4254L27.9444 26.0689L28.2021 26.6997L28.4892 27.318L28.8121 27.9299L29.1632 28.5264L29.5385 29.1102L29.9483 29.6751L30.382 30.2306L30.8455 30.761L31.3316 31.2725L31.8411 31.7685L32.3809 32.2391L32.9432 32.6818L33.5233 33.1086L34.1272 33.5041L34.7543 33.8683L35.4042 34.2104L36.0728 34.518L36.7581 34.8004L37.4616 35.0418L38.188 35.252L38.9269 35.4312L39.6824 35.5663L40.4561 35.6664L41.2413 35.7325L42.0386 35.7482H69V41.3314ZM10.9935 8.65615H0V14.2396H5.54981V42H11.0465L10.9935 8.65615Z"/>
</mask>
<path fill-rule="evenodd" clip-rule="evenodd" d="M18.9347 0H5.59656V5.58431H13.3848L13.4373 42H18.9347L18.9347 0ZM69 32.5781H41.9917L41.3816 32.5591L40.7841 32.5123L40.1927 32.4399L39.6121 32.3364L39.0441 32.2047L38.4868 32.0446L37.9363 31.8563L37.4026 31.6522L36.881 31.4105L36.3716 31.1499L35.8795 30.8675L35.4041 30.5599L34.9416 30.2305L34.5023 29.8821L34.0739 29.5116L33.6638 29.1163L33.2772 28.7085L32.9082 28.2784L32.5616 27.8296L32.2343 27.3713L31.9292 26.8879L31.642 26.392L31.3844 25.8835L31.1495 25.3594L30.9389 24.8165L30.7573 24.2705L30.5985 23.7085L30.4701 23.1372L30.3646 22.5536L30.2881 21.9573L30.2477 21.3561L30.2295 20.7435L30.2416 20.1362L30.2828 19.5343L30.3468 18.945L30.4464 18.3613L30.5698 17.7893L30.7219 17.2235L30.904 16.6689L31.1088 16.1266L31.3377 15.5955L31.5895 15.0831L31.8652 14.5816L32.1692 14.0919L32.4918 13.6204L32.8317 13.1661L33.2007 12.7301L33.5822 12.3117L33.9866 11.9107L34.4142 11.5334L34.8534 11.1739L35.3105 10.8375L35.7855 10.5189L36.2772 10.2301L36.7874 9.95939L37.3085 9.71698L37.8483 9.4987L38.3931 9.30422L38.9557 9.14479L39.5301 9.01002L40.1159 8.89781L40.7137 8.82094L41.3237 8.77376L41.9387 8.75573L42.5363 8.77376L43.1284 8.82094L43.7144 8.90321L44.2887 9.01002L44.8573 9.1511L45.4199 9.32216L45.9647 9.51665L46.5044 9.74032L47.0318 9.99399L47.5405 10.2717L48.04 10.5722L48.5253 10.9025L48.995 11.25L49.4458 11.6276L49.8797 12.0229L50.3012 12.4412L50.7004 12.8773L51.0748 13.3372L51.4321 13.8151L51.7726 14.3101L52.0892 14.8287L52.3764 15.3599L52.6448 15.9085L52.8911 16.4741L53.1079 17.0524L53.3016 17.6472L53.4656 18.2489L53.6013 18.868L53.7061 19.5053L53.7882 20.147L53.8353 20.7962L53.846 21.4616H53.7883H53.6121H53.342H52.9913H52.5747H52.1129H51.6132H51.0983H50.5881H50.0903H49.6269H49.2117H48.8589H48.5905H48.4143H48.3502L48.3441 21.0909L48.3268 20.7309L48.2907 20.3715L48.2381 20.0239L48.1804 19.6763L48.104 19.3397L48.0149 19.0095L47.9165 18.6853L47.8043 18.3669L47.6763 18.06L47.5404 17.7656L47.389 17.4763L47.2254 17.1938L47.0487 16.9286L46.8617 16.6689L46.6681 16.4216L46.4575 16.1855L46.2342 15.9611L46.0003 15.7547L45.7602 15.5548L45.507 15.3718L45.2374 15.2008L44.9627 15.0416L44.6809 14.8995L44.3822 14.7699L44.0779 14.658L43.7608 14.5637L43.4387 14.4867L43.0985 14.4224L42.7594 14.3755L42.402 14.3518L42.0383 14.3401L41.6748 14.3518L41.3237 14.3755L40.9775 14.4224L40.6434 14.4867L40.3154 14.5637L39.9987 14.658L39.6946 14.7699L39.4013 14.8995L39.114 15.0416L38.8385 15.2008L38.5746 15.3718L38.3165 15.5548L38.0764 15.7547L37.8424 15.9611L37.6254 16.1855L37.4148 16.4216L37.2148 16.6689L37.0274 16.9286L36.8513 17.1938L36.6938 17.4763L36.5409 17.7656L36.4005 18.06L36.2771 18.3669L36.1602 18.6853L36.0601 19.0095L35.9729 19.3397L35.8964 19.6763L35.8378 20.0239L35.7913 20.3715L35.7559 20.7309L35.7326 21.0909L35.7265 21.4616L35.7389 21.7564L35.7622 22.0453L35.8091 22.3337L35.8677 22.6132L35.9495 22.8895L36.0369 23.1531L36.1482 23.4197L36.2716 23.6741L36.4067 23.9219L36.5534 24.1637L36.7171 24.3989L36.8929 24.6217L37.0806 24.8414L37.2736 25.0488L37.4851 25.2528L37.702 25.4408L37.9244 25.6264L38.1591 25.7958L38.4047 25.9621L38.657 26.1158L38.9142 26.2569L39.1782 26.3856L39.4483 26.5081L39.7235 26.6149L39.9988 26.7153L40.2861 26.7968L40.5731 26.8755L40.8603 26.9349L41.1537 26.9821L41.4463 27.0168L41.7451 27.0355L42.0385 27.0449H68.9998L69 32.5781ZM69 41.3314H42.0386L41.0009 41.3096L39.9757 41.2311L38.9559 41.115L37.9595 40.9424L36.975 40.732L36.0139 40.4719L35.065 40.1644L34.1388 39.8185L33.2362 39.4328L32.3515 39.0027L31.4963 38.5382L30.6634 38.0299L29.8607 37.4866L29.0868 36.9062L28.3426 36.2908L27.6277 35.6413L26.9483 34.9603L26.2975 34.2449L25.6879 33.4977L25.114 32.7255L24.5746 31.916L24.0759 31.0843L23.6197 30.224L23.2033 29.3392L22.8338 28.4322L22.5118 27.4998L22.23 26.5394L21.9961 25.5666L21.8145 24.5624L21.6856 23.5487L21.6033 22.5129L21.5739 21.4617L21.6033 20.4013L21.674 19.3578L21.8024 18.3196L21.9728 17.2942L22.1893 16.2796L22.4532 15.2831L22.7636 14.3048L23.1156 13.3373L23.5083 12.3997L23.9422 11.4803L24.4225 10.584L24.9374 9.7115L25.4947 8.86803L26.0868 8.05425L26.713 7.26419L27.3822 6.50939L28.0786 5.78984L28.8121 5.1002L29.5793 4.45216L30.3767 3.83848L31.2029 3.26657L32.058 2.73611L32.949 2.24647L33.857 1.80464L34.8012 1.4094L35.7678 1.05536L36.7581 0.75497L37.772 0.507702L38.8038 0.313093L39.8639 0.165621L40.9423 0.0824367L42.0386 0.0534902L43.1403 0.0767886L44.2187 0.159391L45.2733 0.294903L46.311 0.484113L47.3236 0.719587L48.321 1.00814L49.2884 1.34415L50.2249 1.72777L51.1452 2.15237L52.0302 2.62377L52.8914 3.13696L53.7188 3.69096L54.521 4.28654L55.2884 4.92357L56.0219 5.58971L56.7242 6.29767L57.392 7.04068L58.0257 7.81891L58.6171 8.6262L59.1802 9.46361L59.695 10.3305L60.1759 11.2321L60.616 12.1525L61.0074 13.1018L61.3666 14.074L61.6708 15.0706L61.9409 16.0904L62.1577 17.1286L62.3278 18.184L62.4557 19.2637L62.526 20.3543L62.5555 21.4617H57.058L57.0284 20.6964L56.977 19.9415L56.8879 19.1868L56.7664 18.4384L56.6197 17.7008L56.4372 16.9694L56.2325 16.2506L55.9925 15.5428L55.7223 14.8525L55.4245 14.1689L55.1011 13.5083L54.7442 12.8595L54.3568 12.2349L53.9466 11.6277L53.5082 11.0376L53.0445 10.4718L52.5471 9.93514L52.0243 9.42287L51.4795 8.93323L50.9052 8.47329L50.3016 8.04267L49.6738 7.64161L49.023 7.27599L48.3446 6.94022L47.6409 6.6395L46.9136 6.38006L46.1644 6.15024L45.3844 5.96709L44.5823 5.81958L43.7611 5.7138L42.9118 5.65483L42.0386 5.63693L41.1655 5.65483L40.3095 5.72547L39.4833 5.83777L38.6805 5.99072L37.9009 6.18529L37.1449 6.42076L36.4124 6.69216L35.7092 6.9989L35.0297 7.34123L34.3735 7.71853L33.746 8.12502L33.1423 8.56133L32.5679 9.02726L32.0236 9.52258L31.5017 10.0474L31.003 10.5903L30.5405 11.1561L30.1012 11.7455L29.6906 12.3589L29.3154 12.9897L28.958 13.6324L28.6359 14.2923L28.3426 14.9711L28.0786 15.6605L27.8447 16.3622L27.6457 17.0698L27.4702 17.7895L27.3289 18.5145L27.2173 19.2459L27.1353 19.9827L27.0889 20.72L27.0713 21.4617L27.0951 22.1299L27.147 22.7953L27.2408 23.4607L27.3639 24.1168L27.5227 24.7757L27.7158 25.4254L27.9444 26.0689L28.2021 26.6997L28.4892 27.318L28.8121 27.9299L29.1632 28.5264L29.5385 29.1102L29.9483 29.6751L30.382 30.2306L30.8455 30.761L31.3316 31.2725L31.8411 31.7685L32.3809 32.2391L32.9432 32.6818L33.5233 33.1086L34.1272 33.5041L34.7543 33.8683L35.4042 34.2104L36.0728 34.518L36.7581 34.8004L37.4616 35.0418L38.188 35.252L38.9269 35.4312L39.6824 35.5663L40.4561 35.6664L41.2413 35.7325L42.0386 35.7482H69V41.3314ZM10.9935 8.65615H0V14.2396H5.54981V42H11.0465L10.9935 8.65615Z" stroke="#9DE311" stroke-width="4" mask="url(#path-1-inside-1_50_135)"/>
</svg>
